<svg xmlns="http://www.w3.org/2000/svg" version="1.1" xmlns:xlink="http://www.w3.org/1999/xlink" xmlns:svgjs="http://svgjs.dev/svgjs" width="410" height="410"><svg width="410" height="410" viewBox="0 0 410 410" fill="none" xmlns="http://www.w3.org/2000/svg">
<circle cx="205" cy="205" r="205" fill="white"></circle>
<path d="M380 205C380 301.65 301.65 380 205 380C108.35 380 30 301.65 30 205C30 108.35 108.35 30 205 30C301.65 30 380 108.35 380 205Z" stroke="#3C3C3C" stroke-width="30"></path>
<path d="M298.747 65.8973V67.5577" stroke="#3C3C3C" stroke-width="24" stroke-linecap="round"></path>
<path d="M302.267 67.5729C305.481 71.0966 309.166 74.3201 313.322 75.0757C320.053 76.2995 326.982 87.4217 331.309 91.8181C336.869 97.466 343.119 103.336 347.867 109.667C351.118 114.002 351.451 118.835 353.725 123.55C357.854 132.115 359.93 140.719 363.042 149.609C363.927 152.139 365.678 154.092 367.008 156.389C369.177 160.137 370.501 162.933 371.851 167.32C375.871 180.385 374.278 194.209 373.511 207.631C372.744 221.052 372.864 231.936 367.239 244.437C366.938 245.105 366.653 245.779 366.383 246.459C366.999 247.468 367.924 248.37 369.314 249.188C371.577 250.519 371.146 259.684 368.853 260.995C366.31 262.448 363.447 262.909 361.275 264.895C360.926 266.372 360.567 267.842 360.182 269.297C357.445 279.637 351.324 288.902 346.53 298.354C341.073 309.111 333.247 317.893 326.328 327.642C322.373 333.214 318.182 336.038 312.676 340.418C309.32 343.087 305.461 345.225 303.313 349.043C300.801 353.509 297.93 353.189 293.95 355.638C292.316 356.644 290.445 358.309 290.445 355.454C290.445 352.975 289.799 344.358 292.105 343.001C294.954 341.325 298.729 339.525 301.145 337.328C305.988 332.925 308.516 326.813 313.691 322.615C317.834 319.253 321.862 317.063 325.36 312.837C328.66 308.848 332.078 304.873 335.737 301.214C342.409 294.541 345.977 284.696 351.419 276.815C354.285 272.664 357.441 268.717 361.012 265.146C361.099 265.06 361.186 264.976 361.275 264.895C362.741 258.692 364.033 252.363 366.383 246.459C365.077 244.321 365.163 241.704 365.163 238.395V228.433C365.163 224.551 367.734 222.008 368.853 218.332C370 214.564 369.265 210.068 369.314 206.202C369.36 202.567 370.753 199.491 370.975 196.055C371.313 190.809 371.193 185.252 369.775 180.189C368.031 173.957 366.326 167.766 365.163 161.371C363.321 151.241 358.88 142.862 353.171 134.435C350.007 129.765 351.559 124.617 348.559 119.676C347.308 117.616 348.414 115.251 346.437 113.634C344.48 112.032 343.007 110.404 341.733 108.238C341.485 107.816 339.221 105.748 339.611 106.577C340.812 109.129 343.102 110.65 344.777 112.804C346.527 115.054 341.759 113.06 341.087 112.389C339.56 110.861 339.284 109.299 338.135 107.823C337.094 106.484 335.099 105.141 334.446 103.672C333.692 101.977 331.423 102.225 330.479 100.766C329.102 98.6381 326.501 96.1412 324.529 94.5393C322.691 93.046 321.982 90.7925 320.332 89.143C316.628 85.4386 312.513 82.2884 308.894 78.5349C305.869 75.3982 304.384 71.2775 302.267 67.5729Z" fill="white"></path>
<path d="M296.256 67.5577C295.687 64.4256 292.105 62.5361 292.105 59.2557C292.105 54.4563 293.639 57.5445 296.395 60.6855C300.716 65.6113 306.357 73.8094 313.322 75.0757C320.053 76.2995 326.982 87.4217 331.309 91.8181C336.869 97.466 343.119 103.336 347.867 109.667C351.118 114.002 351.451 118.835 353.725 123.55C357.854 132.115 359.93 140.719 363.042 149.609C363.927 152.139 365.678 154.092 367.008 156.389C369.177 160.137 370.501 162.933 371.851 167.32C375.871 180.385 374.278 194.209 373.511 207.631C372.744 221.052 372.864 231.936 367.239 244.437C363.707 252.285 362.372 261.025 360.182 269.297C357.445 279.637 351.324 288.902 346.53 298.354C341.073 309.111 333.247 317.893 326.328 327.642C322.373 333.214 318.182 336.038 312.676 340.418C309.32 343.087 305.461 345.225 303.313 349.043C300.801 353.509 297.93 353.189 293.95 355.638C292.316 356.644 290.445 358.309 290.445 355.454C290.445 352.975 289.799 344.358 292.105 343.001C294.954 341.325 298.729 339.525 301.145 337.328C305.988 332.925 308.516 326.813 313.691 322.615C317.834 319.253 321.862 317.063 325.36 312.837C328.66 308.848 332.078 304.873 335.737 301.214C342.409 294.541 345.977 284.696 351.419 276.815C354.285 272.664 357.441 268.717 361.012 265.146C363.213 262.945 366.206 262.507 368.853 260.995C371.146 259.684 371.577 250.519 369.314 249.188C364.977 246.637 365.163 243.265 365.163 238.395C365.163 235.074 365.163 231.753 365.163 228.433C365.163 224.551 367.734 222.008 368.853 218.332C370 214.564 369.265 210.068 369.314 206.202C369.36 202.567 370.753 199.491 370.975 196.055C371.313 190.809 371.193 185.252 369.775 180.189C368.031 173.957 366.326 167.766 365.163 161.371C363.321 151.241 358.88 142.862 353.171 134.435C350.007 129.765 351.559 124.617 348.559 119.676C347.308 117.616 348.414 115.251 346.437 113.634C344.48 112.032 343.007 110.404 341.733 108.238C341.485 107.816 339.221 105.748 339.611 106.577C340.812 109.129 343.102 110.65 344.777 112.804C346.527 115.054 341.759 113.06 341.087 112.389C339.56 110.861 339.284 109.299 338.135 107.823C337.094 106.484 335.099 105.141 334.446 103.672C333.692 101.977 331.423 102.225 330.479 100.766C329.102 98.6381 326.501 96.1412 324.529 94.5393C322.691 93.046 321.982 90.7925 320.332 89.143C316.628 85.4386 312.513 82.2884 308.894 78.5349C305.404 74.9155 303.963 69.986 301.238 65.8973" stroke="#3C3C3C" stroke-width="24" stroke-linecap="round"></path>
<line x1="281.509" y1="35.0163" x2="280.5" y2="375.015" stroke="#3C3C3C" stroke-width="11"></line>
<circle cx="205" cy="205" r="149.5" fill="white" stroke="#3C3C3C" stroke-width="11"></circle>
<path d="M263.878 323.706C263.878 330.609 263.878 337.512 263.878 344.415C263.878 345.828 264.304 347.154 263.048 347.782" stroke="white" stroke-width="24" stroke-linecap="round"></path>
<path d="M300.23 55.4163V55.4942" stroke="white" stroke-width="3" stroke-linecap="round"></path>
<path d="M287.214 45.5957V46.531" stroke="white" stroke-width="3" stroke-linecap="round"></path>
<path d="M300.23 56.3516C299.924 55.4934 299.431 54.764 299.052 53.944C298.87 53.5487 299.317 53.9875 299.338 54.0047C299.834 54.4123 300.316 54.8442 300.801 55.2647C301.089 55.5138 301.41 55.5392 301.555 55.1045" stroke="#3C3C3C" stroke-width="3" stroke-linecap="round"></path>
<path d="M288.85 44.5824C288.796 44.4923 288.708 44.1756 288.634 44.1234C288.546 44.0621 288.617 44.3369 288.617 44.4439C288.614 44.8711 288.617 45.2983 288.617 45.7256C288.617 45.9003 288.836 47.9159 288.305 47.1198C288.192 46.9512 287.03 44.8754 286.941 45.0068C286.648 45.4395 286.746 46.1329 286.629 46.6262C286.586 46.8077 286.463 46.78 286.391 46.9293C286.266 47.1884 285.969 47.9368 286.2 48.1677" stroke="#3C3C3C" stroke-width="3" stroke-linecap="round"></path>
<path d="M337.408 123.693C337.408 124.395 337.455 125.096 337.486 125.797" stroke="#3C3C3C" stroke-width="3" stroke-linecap="round"></path>
<path d="M321.138 100.916C325.114 106.217 328.924 111.632 332.401 117.275C336.758 124.346 341.27 131.351 345.508 138.492C346.96 140.94 348.203 143.216 349.445 145.768C350.361 147.652 353.198 153.177 351.849 151.574C351.424 151.068 351.139 150.457 350.815 149.88C349.287 147.15 345.904 140.73 344.686 138.393C341.323 131.939 338.085 125.427 334.831 118.919C334.758 118.774 332.558 114.181 331.803 113.276C331.718 113.173 331.381 113.169 331.405 113.3C331.85 115.74 335.008 123.68 335.267 124.364C336.447 127.479 337.71 130.563 338.842 133.696C339.563 135.689 340.501 137.643 340.823 139.738C340.894 140.2 339.925 139.346 339.652 138.966C336.853 135.064 334.716 130.446 332.675 126.108C332.27 125.247 331.941 124.35 331.529 123.492C331.02 122.428 332.123 125.776 332.501 126.893C334.102 131.633 336.557 134.959 340.001 138.667C345.417 144.497 351.379 149.836 357.157 155.299C359.405 157.424 359.754 157.222 360.608 160.171C363.074 168.691 364.305 177.792 365.99 186.484C366.351 188.344 366.979 190.182 367.012 192.078C367.028 193.035 366.336 190.285 366.04 189.374C365.082 186.426 364.274 183.429 363.249 180.503C362.379 178.018 361.634 175.456 360.359 173.153C360.081 172.65 359.071 171.942 358.789 172.442C358.136 173.599 358.603 175.092 358.515 176.417C358.315 179.44 358.613 180.182 357.319 175.844C356.615 173.486 356.045 171.09 355.35 168.73C355.175 168.135 353.035 160.129 351.563 158.451C349.914 156.571 350.386 163.378 350.491 165.877C350.609 168.676 350.677 171.851 351.364 174.598C352.777 180.25 350.359 162.944 350.741 157.131C350.755 156.904 351.234 157.3 351.301 157.517C353.494 164.538 354.8 171.807 356.521 178.958C357.73 183.978 358.942 188.997 360.184 194.009C361.114 197.756 362.055 201.5 363.037 205.234C363.559 207.215 363.821 209.299 364.694 211.152C364.901 211.59 365.169 210.266 365.18 209.782C365.252 206.849 365.067 203.916 364.944 200.986C364.294 185.59 363.393 170.194 362.452 154.813C361.999 147.407 361.709 146.163 362.851 152.645C363.263 154.989 363.675 157.333 364.109 159.672C364.53 161.942 364.933 164.217 365.417 166.475C365.581 167.238 365.959 169.505 366.052 168.73C366.234 167.228 365.876 165.708 365.691 164.207C365.232 160.465 364.728 156.728 364.121 153.007C363.407 148.628 362.645 144.254 361.729 139.913C361.062 136.75 360.277 133.61 359.375 130.506C359.079 129.489 358.905 126.845 358.141 127.578C357.281 128.404 358.463 129.947 358.752 131.104C359.278 133.216 359.934 135.294 360.583 137.371C364.232 149.05 360.579 136.885 360.184 135.726C358.747 131.504 356.581 125.29 354.939 121C352.698 115.144 353.238 117.716 354.354 120.701C355.006 122.446 355.703 124.173 356.409 125.896C357.115 127.62 357.893 129.314 358.59 131.042C358.911 131.84 359.701 132.645 359.462 133.471C359.298 134.039 358.623 132.634 358.266 132.163C350.87 122.408 359.149 132.595 350.317 121.324C350.215 121.194 345.856 115.481 344.262 114.671C343.775 114.423 345.812 118.383 344.573 116.203C341.391 110.603 337.925 105.147 334.42 99.7453C334.171 99.3627 331.709 94.8635 330.308 94.3382C327.975 93.4631 319.727 89.4392 318.971 94.1388C318.695 95.8492 319.486 97.5778 319.992 99.2345C320.529 100.991 321.471 102.6 322.085 104.33C322.313 104.97 322.989 105.843 322.509 106.324C322.134 106.698 318.204 102.933 320.117 104.953C321.442 106.352 325.048 109.89 326.247 110.983C326.885 111.566 327.58 113.172 328.252 112.628C328.912 112.094 327.314 111.21 326.77 110.56C325.115 108.583 323.382 106.673 321.662 104.754C319.727 102.595 317.759 100.467 315.806 98.325C314.47 96.8589 310.211 92.7897 311.894 93.8398C313.871 95.0732 315.392 97.5133 317.613 98.3499C318.324 98.618 317.159 96.896 316.865 96.1945C315.596 93.163 318.433 95.0177 319.843 95.6837C320.631 96.056 323.989 98.3592 323.867 95.7709C323.864 95.6998 322.604 92.514 323.854 93.5657C325.804 95.2044 330.691 100.949 329.523 98.6863C328.743 97.1737 327.43 95.8784 326.845 94.2634C326.302 92.7664 329.674 94.4954 329.698 94.5001C331.009 94.7605 332.022 94.8699 332.9 93.6529C333.659 92.5995 333.288 89.4155 335.192 89.3796C337.579 89.3345 339.377 91.6671 341.534 92.27C342.819 92.6294 341.559 89.7193 341.546 89.4294C341.467 87.6409 345.13 90.7749 345.844 90.7749C346.059 90.7749 345.896 90.1698 345.682 90.152C345.573 90.1429 345.603 90.3706 345.632 90.4759C346.016 91.8667 347.215 94.5568 347.651 95.584C348.266 97.035 350.285 101.64 350.815 103.259C351.779 106.201 351.028 106.092 348.884 104.928C347.02 103.916 345.394 103.137 346.505 106.299C346.898 107.419 347.463 108.472 347.987 109.538C348.485 110.55 349.058 111.523 349.569 112.528C349.747 112.877 350.409 113.769 350.055 113.599C349.526 113.345 349.304 112.695 348.947 112.229C348.141 111.179 347.375 110.099 346.567 109.052C345.772 108.023 344.993 106.979 344.137 106C343.574 105.354 342.092 103.786 343.215 105.925C343.692 106.833 344.261 107.692 344.835 108.541C345.441 109.437 346.062 110.326 346.754 111.158C347.034 111.495 347.634 112.456 347.738 112.03C347.892 111.399 347.294 110.803 346.978 110.236C345.756 108.044 342.65 103.235 341.147 101.39C340.53 100.631 337.823 97.2147 338.606 101.141C339.887 107.567 343.758 113.079 345.57 119.281C345.632 119.492 345.176 119.773 345.01 119.63C343.918 118.686 343.155 117.417 342.181 116.353C341.543 115.655 341.079 114.625 340.176 114.347C339.901 114.263 343.083 120.167 340.836 117.611C337.693 114.036 335.462 109.675 332.451 105.975C331.543 104.858 330.651 103.717 329.61 102.723C327.543 100.749 327.691 101.843 328.439 103.969C328.932 105.369 329.566 106.718 330.233 108.043C330.678 108.926 333.01 113.317 334.295 114.272C335.777 115.375 336.01 112.263 336.039 112.154C336.949 108.792 337.505 106.141 341.795 106.685C343.073 106.847 344.253 107.461 345.483 107.844C346.05 108.02 348.942 109.831 348.897 107.445C348.875 106.292 348.346 105.205 348.037 104.093C347.69 102.845 347.141 101.646 346.928 100.368C346.849 99.8901 346.704 98.8298 347.177 98.9355C348.174 99.1581 348.819 100.175 349.495 100.941C350.954 102.594 352.26 104.379 353.556 106.162C356.841 110.678 360.652 115.785 362.576 121.125C362.64 121.3 362.558 121.779 362.415 121.66C361.678 121.053 359.546 117.248 359.387 116.976C358.949 116.228 358.637 115.395 358.091 114.721C356.785 113.107 359.542 118.612 360.284 120.552C363.229 128.253 365.192 133.575 367.61 141.682C368.8 145.673 369.874 149.699 370.874 153.742C371.644 156.853 372.393 159.974 372.917 163.136C373.127 164.399 373.753 165.892 373.067 166.973C372.67 167.598 371.848 166.076 371.447 165.453C370.118 163.386 366.23 155.316 365.317 153.293C363.573 149.427 362.663 145.304 360.994 141.457C360.476 140.263 360.683 144.059 360.782 145.357C361.559 155.459 362.888 165.514 363.623 175.619C364.145 182.794 364.191 187.053 364.096 194.308C364.055 197.498 363.957 200.688 363.835 203.876C363.766 205.664 363.756 207.46 363.523 209.233C363.435 209.906 363.382 207.881 363.399 207.203C363.457 204.847 363.364 201.253 364.807 199.03C365.233 198.372 366.071 198.105 366.688 197.622C368.328 196.337 369.716 194.699 371.522 193.66C373.154 192.72 374.471 194.138 374.45 191.803C374.445 191.33 374.494 190.809 374.263 190.396C373.75 189.479 374.011 192.485 373.989 193.535C373.968 194.53 374.366 195.819 373.64 196.5C373.515 196.618 373.23 196.412 373.129 196.55C372.341 197.631 372.92 201.129 372.942 201.397C373.4 206.817 374.089 212.275 374.886 217.656C374.964 218.184 374.832 218.848 375.21 219.225C375.471 219.486 375.343 218.497 375.359 218.129C375.405 217.108 375.389 216.086 375.397 215.064C375.41 213.378 375.982 211.541 375.284 210.006C375.178 209.772 374.991 210.435 374.911 210.679C374.403 212.223 373.756 215.461 372.967 216.833C372.643 217.397 372.139 218.223 371.497 218.117C370.688 217.982 370.173 217.054 369.828 216.31C369.028 214.586 368.572 212.715 368.133 210.865C366.364 203.409 365.983 195.837 365.193 188.253C364.934 185.767 364.816 184.726 364.346 187.879C363.514 193.46 363.143 199.109 362.352 204.698C362.201 205.765 362.081 206.84 361.829 207.888C361.459 209.425 361.082 208.624 360.907 207.464C359.976 201.278 360.488 194.728 360.944 188.539C361.299 183.73 361.538 182.128 362.066 177.937C362.412 175.184 361.221 183.42 360.782 186.16C359.84 192.039 358.897 197.918 357.979 203.801C357.725 205.429 357.486 207.059 357.219 208.685C357.01 209.962 356.566 213.752 356.372 212.473C355.737 208.292 356.165 204.018 356.098 199.79C355.934 189.504 355.893 179.198 355.5 168.917C355.053 157.251 355.63 192.275 355.114 203.938C355.053 205.316 355.253 209.361 354.79 208.062C354.619 207.584 354.698 207.05 354.678 206.542C354.59 204.417 354.35 195.027 354.329 194.059C353.994 178.787 354.002 163.508 353.88 148.235" stroke="#3C3C3C" stroke-width="3" stroke-linecap="round"></path>
<path d="M363.748 195.554C363.748 199.725 362.812 203.942 362.028 208.012C359.126 223.09 355.658 238.386 350.242 252.777C349.26 255.388 347.983 257.867 346.853 260.414C346.658 260.855 346.439 261.288 346.293 261.747C346.048 262.513 347.147 260.382 347.514 259.667C349.62 255.556 351.472 251.284 352.958 246.909C357.83 232.567 360.941 217.623 364.42 202.904C365.123 199.934 367.194 191.024 366.688 194.034C365.58 200.627 364.011 207.219 362.726 213.768C360.325 226.002 357.591 238.281 355.774 250.622C354.126 261.816 361.24 228.655 363.561 217.581C365.558 208.049 367.477 198.49 369.18 188.901C369.246 188.529 369.448 187.417 369.342 187.779C368.516 190.585 368.091 193.493 367.473 196.351C365.514 205.414 363.547 214.475 361.58 223.536C361.366 224.523 357.965 240.154 357.568 242.1C356.615 246.77 357.341 244.341 358.266 240.779C361.017 230.18 363.553 219.464 365.006 208.598C365.628 203.947 366.288 198.663 364.969 194.009C364.586 192.66 363.834 191.238 363.224 189.972C363.164 189.847 362.784 188.408 362.29 189.386C361.652 190.65 360.615 195.343 360.496 195.84C357.883 206.753 355.378 217.777 353.644 228.868C353.101 232.34 352.691 235.851 352.46 239.359C352.432 239.782 352.35 240.215 352.435 240.63C352.46 240.752 352.618 240.448 352.659 240.331C352.947 239.504 354.067 235.224 354.129 234.973C355.501 229.444 356.614 223.864 357.593 218.254C357.917 216.396 358.166 214.525 358.515 212.672C359.142 209.346 359.29 209.918 359.163 213.843C358.73 227.166 357.432 240.508 355.637 253.711C354.709 260.535 353.858 265.683 352.36 272.138C352.119 273.179 351.155 276.231 351.339 275.178C352.242 269.985 354.147 264.779 355.6 259.741C356.338 257.18 357.092 254.623 357.805 252.054C358.413 249.863 359.085 247.687 359.561 245.464C359.796 244.369 360.358 243.162 359.935 242.125C359.732 241.626 358.852 242.477 358.515 242.897C356.813 245.016 352.709 252.409 351.613 254.359C350.681 256.017 349.798 257.701 348.859 259.355C348.502 259.986 348.434 261.058 347.726 261.212C347.113 261.344 348.15 260.031 348.398 259.455C348.981 258.103 349.589 256.762 350.217 255.431C352.387 250.838 354.564 246.056 357.406 241.826C357.769 241.285 358.013 240.337 358.664 240.331C359.159 240.326 358.815 241.324 358.739 241.813C358.514 243.265 358.133 244.689 357.767 246.111C356.17 252.324 354.403 258.559 352.348 264.638C352.112 265.335 352.118 266.24 351.538 266.693C351.067 267.061 351.768 265.518 351.949 264.949C353.278 260.775 354.791 256.982 356.609 252.951C357.625 250.698 358.636 248.433 359.86 246.286C360.528 245.115 361.123 243.751 362.265 243.034C362.688 242.768 363.223 243.646 363.274 244.143C363.444 245.805 363.093 247.481 362.888 249.139C362.384 253.219 361.679 256.192 360.969 260.165C360.807 261.076 360.578 261.982 360.533 262.906C360.475 264.115 361.257 263.25 361.704 263.13C365.188 262.2 362.57 270.382 362.302 271.627C361.74 274.242 361.726 274.07 363.037 272.35C363.369 271.915 363.692 271.472 364.072 271.079C364.756 270.37 364.881 270.365 364.719 271.228C364.663 271.531 364.3 271.849 364.458 272.113C364.579 272.315 364.811 271.796 364.944 271.602C365.589 270.663 366.181 269.689 366.788 268.724C368.164 266.534 370.087 263.414 371.435 261.137C371.787 260.541 372.753 258.761 372.232 259.218C368.055 262.886 364.314 267.517 360.434 271.453C354.956 277.008 349.432 282.537 343.751 287.886C341.511 289.995 339.494 292.447 337.21 294.526C336.848 294.856 336.067 295.763 335.952 295.286C335.731 294.366 336.4 293.442 336.737 292.558C337.378 290.875 338.211 289.271 338.88 287.599C339.209 286.777 339.907 285.949 339.727 285.083C339.577 284.358 337.801 287.277 338.107 286.603C339.569 283.389 344.8 274.248 343.676 277.595C343.028 279.526 340.528 285.051 340.923 283.052C341.196 281.671 341.891 280.408 342.418 279.102C343.623 276.121 344.878 273.161 346.118 270.194C347.953 265.808 353.695 252.8 351.289 256.901C347.747 262.935 344.886 269.397 341.06 275.265C340.677 275.853 339.794 277.492 339.627 276.81C339.338 275.624 340.198 274.433 340.574 273.272C341.154 271.482 341.834 269.726 342.493 267.964C342.885 266.917 344.146 263.808 343.739 264.85C342.668 267.589 340.849 272.11 339.877 274.518C337.74 279.809 331.254 295.651 333.373 290.353C333.723 289.478 334.106 288.618 334.469 287.749C335.219 285.956 335.991 284.172 336.712 282.367C337.179 281.198 337.85 280.074 338.033 278.828C338.109 278.305 337.325 279.623 337.048 280.074C335.171 283.134 333.577 286.361 331.716 289.431C331.67 289.507 326.504 297.067 328.589 291.486C329.71 288.485 331.373 285.589 333.199 282.965C333.432 282.629 333.616 282.182 333.996 282.03C335.029 281.617 333.11 284.078 332.538 285.033C329.521 290.069 326.016 294.878 322.26 299.385" stroke="#3C3C3C" stroke-width="3" stroke-linecap="round"></path>
<path d="M235.329 353.352C224.855 353.415 214.392 353.709 203.916 353.709C200.848 353.709 197.731 353.742 194.717 354.345C191.945 354.9 188.632 354.425 185.816 354.425C182.956 354.425 180.284 354.193 177.471 353.63C173.819 352.9 170.603 350.649 166.861 350.133C164.345 349.786 161.897 348.961 159.43 348.424C157.084 347.914 154.274 346.908 152.197 345.662C150.833 344.844 149.723 343.273 148.422 342.623" stroke="white" stroke-width="15"></path>
<path d="M230.68 351.206C232.306 351.206 234.275 351.468 235.767 350.689C236.914 350.09 237.744 349.085 238.906 348.504C239.716 348.099 240.689 347.752 241.409 347.272" stroke="white" stroke-width="15"></path>
<path d="M234.972 349.06H246.059" stroke="white" stroke-width="15"></path>
<path d="M238.548 348.702H246.416" stroke="white" stroke-width="15"></path>
<path d="M240.694 348.702H247.132" stroke="white" stroke-width="15"></path>
<path d="M150.21 344.768C146.969 343.737 143.369 342.355 140.335 340.795C138.971 340.093 137.502 339.523 136.262 338.609C134.122 337.032 131.862 334.61 129.308 333.681C124.977 332.107 119.841 329.293 116.512 326.091C113.311 323.013 109.433 321.141 106.558 317.727C103.374 313.946 99.2912 311.016 95.769 307.494C89.0584 300.783 84.1894 292.28 78.5226 284.724C76.0238 281.392 74.0053 277.691 71.5486 274.313C69.256 271.16 68.3997 266.701 66.7999 263.146C65.5632 260.398 63.4017 258.077 62.23 255.278C61.1876 252.788 61.5581 250.106 60.6206 247.668C60.1567 246.462 59.6927 245.315 59.349 244.112C59.1808 243.523 58.77 241.646 58.2959 241.409" stroke="white" stroke-width="15"></path>
<path d="M60.7994 244.986C60.7994 240.37 59.798 235.543 58.8125 231.038C57.8149 226.477 57.6575 221.735 56.5077 217.169C55.5847 213.504 54.7586 209.793 54.342 206.042C53.7659 200.858 54.0042 195.573 54.0042 190.346C54.0042 187.317 53.5911 183.959 54.2029 180.988C55.0618 176.816 56.5951 172.768 57.7793 168.689C58.9654 164.603 60.005 160.091 62.5876 156.648" stroke="white" stroke-width="15"></path>
<path d="M60.7994 196.346C60.7994 190.637 60.7994 184.928 60.7994 179.219C60.7994 174.685 60.4218 169.941 61.8723 165.589" stroke="white" stroke-width="15"></path>
<path d="M55.7924 246.416C56.8928 246.141 58.0356 245.197 59.0112 244.628" stroke="white" stroke-width="15"></path>
<path d="M55.0771 245.701H57.9383" stroke="white" stroke-width="15"></path>
<path d="M61.8723 160.582C61.8723 155.974 62.887 150.87 64.7335 146.634C65.7997 144.188 67.834 142.3 69.3034 139.918C70.8181 137.463 71.721 134.869 72.6016 132.129C75.1719 124.133 79.6923 117.855 85.3576 111.664C94.8839 101.254 106.961 93.7248 117.506 84.4834C121.317 81.1431 126.145 79.0872 130.103 75.8204C132.156 74.1259 134.539 72.8354 136.62 71.1711" stroke="white" stroke-width="15"></path>
<path d="M68.3099 157.721C68.4356 146.162 75.6916 135.558 82.5362 126.765C85.6033 122.824 88.7351 118.698 92.272 115.161C93.0988 114.334 94.0271 112.669 95.1332 112.3" stroke="white" stroke-width="15"></path>
<path d="M134.474 72.6016C129.772 72.6016 144.532 72.4284 148.243 69.5418C150.16 68.051 153.958 67.1236 156.31 66.3627C160.943 64.8638 165.485 63.1155 170 61.2763C174.961 59.2551 180.48 56.8317 185.855 56.8653C191.003 56.8975 196.059 57.5806 201.214 57.5806C207.345 57.5806 213.538 56.8031 219.553 55.6334C220.649 55.4204 226.3 55.6106 226.746 54.7195" stroke="white" stroke-width="15"></path>
<path d="M133.043 74.3899C138.468 72.0135 144.789 70.5599 149.773 67.237C151.313 66.2107 152.677 65.2864 154.303 64.3758C157.14 62.7874 159.729 61.2923 162.827 60.2431C165.827 59.2272 168.91 59.1347 171.947 58.3754C173.369 58.0198 174.844 57.5806 176.318 57.5806" stroke="white" stroke-width="15"></path>
<path d="M202.784 48.2819V54.3618" stroke="white" stroke-width="15"></path>
<path d="M246.059 61.157C241.966 61.157 237.819 61.3707 233.76 60.7597C230.339 60.2447 226.888 59.315 223.527 58.4747C220.629 57.7502 217.912 57.5806 214.944 57.5806" stroke="white" stroke-width="15"></path>
<path d="M232.826 59.7265H246.416" stroke="white" stroke-width="15"></path>
<path d="M226.082 51.443C228.723 51.4567 231.594 51.1452 233.865 52.6591" stroke="white" stroke-width="3" stroke-linecap="round"></path>
<path d="M247.132 60.4418C241.689 60.4418 236.054 59.9726 230.68 60.7994" stroke="white" stroke-width="15"></path>
<line x1="256" y1="29" x2="256" y2="381" stroke="#3C3C3C" stroke-width="40"></line>
</svg><style>@media (prefers-color-scheme: light) { :root { filter: none; } }
@media (prefers-color-scheme: dark) { :root { filter: none; } }
</style></svg>